<svg width="166" height="42" viewBox="0 0 166 42" fill="none" xmlns="http://www.w3.org/2000/svg">
<path d="M21.5998 41.7C9.89978 41.5 0.399781 32.1 0.599781 20.7C0.799781 9.39996 10.7998 -4.33922e-05 22.2998 0.299957C33.9998 0.599957 43.2998 9.99996 43.1998 21.4C43.0998 32.7 33.3998 41.9 21.5998 41.7Z" fill="#1B99D4"/>
<path d="M23.417 21.4C25.917 20.3 27.917 21 29.517 23C31.517 25.5 32.617 28.3 32.117 31.5C32.017 32.6 30.617 32.7 29.717 33C24.617 34.6 19.517 34.3 14.317 32.9C12.317 32.3 11.717 31.2 12.117 29.4C12.617 26.7 13.817 24.3 15.717 22.3C17.017 20.9 18.517 20.3 20.317 21.3C21.317 21 22.117 21.3 22.117 22.4C22.217 24.6 22.217 26.9 22.117 29.1C22.117 27.3 22.117 25.4 22.217 23.6C22.417 22.8 21.917 21.6 23.417 21.4Z" fill="white"/>
<path d="M22.3173 20.2C25.6862 20.2 28.4173 17.4689 28.4173 14.1C28.4173 10.7311 25.6862 8 22.3173 8C18.9483 8 16.2173 10.7311 16.2173 14.1C16.2173 17.4689 18.9483 20.2 22.3173 20.2Z" fill="white"/>
<path d="M20.2671 19.8C21.2671 19.9 22.1671 19.9 23.1671 20C23.1671 20.2 23.1671 20.5001 23.1671 20.7001C21.3671 23.3001 23.1671 26.4 21.5671 29.1C21.5671 27.2 21.5671 25.4 21.5671 23.5C21.5671 22.4 21.9671 21 20.2671 20.6C20.2671 20.3 20.2671 20.1 20.2671 19.8Z" fill="#1B99D4"/>
<path d="M22.8671 21.4H21.4671V29.1H22.8671V21.4Z" fill="#1B99D4"/>
<path d="M71.4127 14.2874V29.9395H67.6V20.5527L64.0995 29.9395H61.0226L57.4997 20.5304V29.9395H53.6871V14.2874H58.1909L62.5833 25.1234L66.9311 14.2874H71.4127ZM86.8634 17.4981L79.0597 35.848H74.9571L77.8111 29.5158L72.7498 17.4981H77.0084L79.8846 25.2795L82.7386 17.4981H86.8634ZM102.579 30.8536V34.5102H88.7549V30.8536H102.579ZM116.899 14.2874V17.342H112.752V29.9395H108.939V17.342H104.792V14.2874H116.899ZM131.098 17.4981V29.9395H127.285V28.2449C126.899 28.7949 126.371 29.2408 125.702 29.5827C125.048 29.9097 124.32 30.0732 123.517 30.0732C122.566 30.0732 121.726 29.8651 120.998 29.4489C120.269 29.0179 119.704 28.401 119.303 27.5983C118.902 26.7957 118.701 25.8518 118.701 24.7667V17.4981H122.491V24.2539C122.491 25.0863 122.707 25.7329 123.138 26.1937C123.569 26.6544 124.149 26.8848 124.877 26.8848C125.62 26.8848 126.208 26.6544 126.639 26.1937C127.07 25.7329 127.285 25.0863 127.285 24.2539V17.4981H131.098ZM140.771 26.7065V29.9395H138.831C137.449 29.9395 136.371 29.605 135.598 28.9361C134.825 28.2524 134.439 27.145 134.439 25.614V20.6642H132.922V17.4981H134.439V14.4658H138.251V17.4981H140.748V20.6642H138.251V25.6585C138.251 26.0302 138.34 26.2977 138.519 26.4612C138.697 26.6247 138.994 26.7065 139.411 26.7065H140.771ZM148.558 30.1178C147.339 30.1178 146.239 29.8577 145.258 29.3375C144.292 28.8172 143.526 28.074 142.961 27.1078C142.411 26.1416 142.136 25.0119 142.136 23.7188C142.136 22.4404 142.419 21.3182 142.984 20.352C143.548 19.371 144.321 18.6203 145.302 18.1001C146.283 17.5798 147.383 17.3197 148.602 17.3197C149.821 17.3197 150.921 17.5798 151.902 18.1001C152.883 18.6203 153.656 19.371 154.221 20.352C154.786 21.3182 155.068 22.4404 155.068 23.7188C155.068 24.9971 154.778 26.1268 154.199 27.1078C153.634 28.074 152.853 28.8172 151.858 29.3375C150.877 29.8577 149.777 30.1178 148.558 30.1178ZM148.558 26.818C149.286 26.818 149.903 26.5504 150.408 26.0153C150.929 25.4802 151.189 24.7147 151.189 23.7188C151.189 22.7229 150.936 21.9573 150.431 21.4222C149.94 20.8871 149.331 20.6196 148.602 20.6196C147.859 20.6196 147.242 20.8871 146.752 21.4222C146.261 21.9425 146.016 22.708 146.016 23.7188C146.016 24.7147 146.254 25.4802 146.729 26.0153C147.22 26.5504 147.829 26.818 148.558 26.818ZM160.904 19.5716C161.35 18.8879 161.907 18.3528 162.576 17.9663C163.245 17.565 163.988 17.3643 164.806 17.3643V21.3999H163.758C162.806 21.3999 162.093 21.608 161.617 22.0242C161.141 22.4256 160.904 23.1391 160.904 24.1647V29.9395H157.091V17.4981H160.904V19.5716Z" fill="black"/>
</svg>
