<svg width="166" height="42" viewBox="0 0 166 42" fill="none" xmlns="http://www.w3.org/2000/svg">
<path d="M21.6 41.7C9.90002 41.5 0.400025 32.1 0.600025 20.7C0.800025 9.39996 10.8 -4.33922e-05 22.3 0.299957C34 0.599957 43.3 9.99996 43.2 21.4C43.1 32.7 33.4 41.9 21.6 41.7Z" fill="white"/>
<path d="M23.2002 20.7001C25.7002 19.6001 27.7002 20.3001 29.3002 22.3001C31.3002 24.8001 32.4002 27.6001 31.9002 30.8001C31.8002 31.9001 30.4002 32.0001 29.5002 32.3001C24.4002 33.9001 19.3002 33.6001 14.1002 32.2001C12.1002 31.6001 11.5002 30.5001 11.9002 28.7001C12.4002 26.0001 13.6002 23.6001 15.5002 21.6001C16.8002 20.2001 18.3002 19.6001 20.1002 20.6001C21.1002 20.3001 21.9002 20.6001 21.9002 21.7001C22.0002 23.9001 22.0002 26.2001 21.9002 28.4001C21.9002 26.6001 21.9002 24.7001 22.0002 22.9001C22.2002 22.1001 21.7002 20.9001 23.2002 20.7001Z" fill="#1B99D4"/>
<path d="M20.3 19.7998C21.3 19.8998 22.2001 19.8998 23.2001 19.9998C23.2001 20.1998 23.2001 20.4998 23.2001 20.6998C21.4001 23.2998 23.2 26.3998 21.6 29.0998C21.6 27.1998 21.6 25.3998 21.6 23.4998C21.6 22.3998 22 20.9998 20.3 20.5998C20.3 20.2998 20.3 20.0998 20.3 19.7998Z" fill="white"/>
<path d="M22.1 19.4998C25.4689 19.4998 28.2 16.7687 28.2 13.3998C28.2 10.0309 25.4689 7.2998 22.1 7.2998C18.7311 7.2998 16 10.0309 16 13.3998C16 16.7687 18.7311 19.4998 22.1 19.4998Z" fill="#1B99D4"/>
<path d="M22.9002 21.4004H21.5002V29.1004H22.9002V21.4004Z" fill="white"/>
<path d="M71.4129 14.2874V29.9395H67.6003V20.5527L64.0997 29.9395H61.0228L57.5 20.5304V29.9395H53.6873V14.2874H58.1912L62.5836 25.1234L66.9314 14.2874H71.4129ZM86.8637 17.4981L79.0599 35.848H74.9574L77.8113 29.5158L72.75 17.4981H77.0086L79.8849 25.2795L82.7388 17.4981H86.8637ZM102.579 30.8536V34.5102H88.7552V30.8536H102.579ZM116.899 14.2874V17.342H112.752V29.9395H108.94V17.342H104.792V14.2874H116.899ZM131.098 17.4981V29.9395H127.285V28.2449C126.899 28.7949 126.371 29.2408 125.702 29.5827C125.048 29.9097 124.32 30.0732 123.517 30.0732C122.566 30.0732 121.726 29.8651 120.998 29.4489C120.27 29.0179 119.705 28.401 119.303 27.5983C118.902 26.7957 118.701 25.8518 118.701 24.7667V17.4981H122.492V24.2539C122.492 25.0863 122.707 25.7329 123.138 26.1937C123.569 26.6544 124.149 26.8848 124.877 26.8848C125.621 26.8848 126.208 26.6544 126.639 26.1937C127.07 25.7329 127.285 25.0863 127.285 24.2539V17.4981H131.098ZM140.771 26.7065V29.9395H138.831C137.449 29.9395 136.371 29.605 135.598 28.9361C134.825 28.2524 134.439 27.145 134.439 25.614V20.6642H132.923V17.4981H134.439V14.4658H138.251V17.4981H140.749V20.6642H138.251V25.6585C138.251 26.0302 138.341 26.2977 138.519 26.4612C138.697 26.6247 138.995 26.7065 139.411 26.7065H140.771ZM148.558 30.1178C147.339 30.1178 146.239 29.8577 145.258 29.3375C144.292 28.8172 143.526 28.074 142.962 27.1078C142.412 26.1416 142.137 25.0119 142.137 23.7188C142.137 22.4404 142.419 21.3182 142.984 20.352C143.549 19.371 144.322 18.6203 145.303 18.1001C146.284 17.5798 147.384 17.3197 148.603 17.3197C149.821 17.3197 150.921 17.5798 151.902 18.1001C152.883 18.6203 153.656 19.371 154.221 20.352C154.786 21.3182 155.069 22.4404 155.069 23.7188C155.069 24.9971 154.779 26.1268 154.199 27.1078C153.634 28.074 152.854 28.8172 151.858 29.3375C150.877 29.8577 149.777 30.1178 148.558 30.1178ZM148.558 26.818C149.286 26.818 149.903 26.5504 150.409 26.0153C150.929 25.4802 151.189 24.7147 151.189 23.7188C151.189 22.7229 150.936 21.9573 150.431 21.4222C149.94 20.8871 149.331 20.6196 148.603 20.6196C147.859 20.6196 147.242 20.8871 146.752 21.4222C146.261 21.9425 146.016 22.708 146.016 23.7188C146.016 24.7147 146.254 25.4802 146.73 26.0153C147.22 26.5504 147.83 26.818 148.558 26.818ZM160.904 19.5716C161.35 18.8879 161.907 18.3528 162.576 17.9663C163.245 17.565 163.988 17.3643 164.806 17.3643V21.3999H163.758C162.807 21.3999 162.093 21.608 161.617 22.0242C161.142 22.4256 160.904 23.1391 160.904 24.1647V29.9395H157.091V17.4981H160.904V19.5716Z" fill="white"/>
</svg>
