<svg width="26" height="26" viewBox="0 0 26 26" fill="none" xmlns="http://www.w3.org/2000/svg">
<path d="M7.92407 15.0187C8.00278 15.0974 8.13228 15.0974 8.21099 15.0187L10.7958 12.4339L12.9819 14.6226C13.0606 14.7013 13.1901 14.7013 13.2688 14.6226L19.0147 8.87163C19.0934 8.79292 19.0934 8.66343 19.0147 8.58472L18.0803 7.65034C18.0016 7.57163 17.8721 7.57163 17.7934 7.65034L13.1266 12.3222L10.9405 10.1335C10.8618 10.0548 10.7323 10.0548 10.6536 10.1335L6.9897 13.7974C6.91099 13.8761 6.91099 14.0056 6.9897 14.0843L7.92407 15.0187Z" fill="#1B99D4"/>
<path d="M22.9531 4.0625H13.9141V2.4375C13.9141 2.32578 13.8227 2.23438 13.7109 2.23438H12.2891C12.1773 2.23438 12.0859 2.32578 12.0859 2.4375V4.0625H3.04688C2.59746 4.0625 2.23438 4.42559 2.23438 4.875V18.0781C2.23438 18.5275 2.59746 18.8906 3.04688 18.8906H12.0961V19.7031L7.91172 22.4479C7.81777 22.5088 7.79238 22.6332 7.85332 22.7271L8.62266 23.9256V23.9281C8.68359 24.0221 8.81055 24.0475 8.90449 23.9865L13 21.3002L17.0955 23.9865C17.1895 24.0475 17.3164 24.0221 17.3773 23.9281V23.9256L18.1467 22.7271C18.2076 22.6332 18.1797 22.5088 18.0883 22.4479L13.9141 19.7107V18.8906H22.9531C23.4025 18.8906 23.7656 18.5275 23.7656 18.0781V4.875C23.7656 4.42559 23.4025 4.0625 22.9531 4.0625ZM21.9375 17.0625H4.0625V5.89062H21.9375V17.0625Z" fill="#1B99D4"/>
</svg>
