<svg width="26" height="26" viewBox="0 0 26 26" fill="none" xmlns="http://www.w3.org/2000/svg">
<g clip-path="url(#clip0_1_552)">
<path d="M9.74967 10.8332V19.4998L17.333 15.1665L9.74967 10.8332ZM22.7497 6.49984H14.538L18.1022 2.93567L17.333 2.1665L12.9997 6.49984H12.9672L8.63384 2.1665L7.88634 2.93567L11.4397 6.49984H3.24967C2.05801 6.49984 1.08301 7.47484 1.08301 8.6665V21.6665C1.08301 22.8582 2.05801 23.8332 3.24967 23.8332H22.7497C23.9413 23.8332 24.9163 22.8582 24.9163 21.6665V8.6665C24.9163 7.47484 23.9413 6.49984 22.7497 6.49984ZM22.7497 21.6665H3.24967V8.6665H22.7497V21.6665Z" fill="#1B99D4"/>
</g>
<defs>
<clipPath id="clip0_1_552">
<rect width="26" height="26" fill="white"/>
</clipPath>
</defs>
</svg>
