<svg width="70" height="70" viewBox="0 0 70 70" fill="none" xmlns="http://www.w3.org/2000/svg">
<rect width="70" height="70" rx="35" fill="#1B99D4"/>
<path d="M45.7818 51.4399C46.0048 48.7622 46.0511 40.2273 38.2284 36.4396C41.4819 34.8621 43.7319 32.2794 44.927 28.7446C45.0375 28.4174 44.862 28.0628 44.5352 27.9524C44.2065 27.8416 43.8537 28.0174 43.7429 28.3442C42.5125 31.9837 40.0472 34.5103 36.4153 35.8537C36.1703 35.9446 36.0073 36.1784 36.0073 36.4399C36.0073 36.7014 36.1703 36.9352 36.4153 37.0262C44.922 40.1735 44.7509 48.9822 44.5271 51.4399H42.6421C41.9257 44.2735 36.9335 42.1837 35.2984 41.6901V37.8013C35.2984 37.4561 35.0186 37.1763 34.6734 37.1763C34.3282 37.1763 34.0484 37.4561 34.0484 37.8013V41.6901C32.4133 42.1837 27.4211 44.2735 26.7047 51.4399H24.8208C24.743 50.5749 24.6649 48.8017 25.0442 46.7192C25.1061 46.3795 24.8809 46.0542 24.5413 45.9922C24.2007 45.9324 23.876 46.1558 23.8143 46.4951C23.427 48.6216 23.4862 50.4656 23.5655 51.4399C22.5085 51.4034 21.6204 52.2556 21.6226 53.3149C21.6226 54.3489 22.4636 55.1899 23.4976 55.1899H45.8493C46.8832 55.1899 47.7243 54.3489 47.7243 53.3149C47.7243 51.4399 45.7818 51.4399 45.7818 51.4399ZM34.6731 42.8105C35.5203 43.0012 40.6375 44.4395 41.3897 51.4399H27.9571C28.7097 44.4361 33.8314 43 34.6731 42.8105ZM45.8493 53.9399H23.4976C23.153 53.9399 22.8726 53.6595 22.8726 53.3149C22.8726 52.9704 23.153 52.6899 23.4976 52.6899H45.8493C46.1938 52.6899 46.4743 52.9704 46.4743 53.3149C46.4743 53.6595 46.1938 53.9399 45.8493 53.9399Z" fill="white"/>
<path d="M23.5675 21.4399C23.3873 23.7986 23.275 32.6138 31.1209 36.439C27.8192 38.0388 25.552 40.6712 24.371 44.282C24.2639 44.6104 24.4427 44.9632 24.7708 45.0706C25.0902 45.1777 25.4525 45.0018 25.5593 44.6708C26.773 40.959 29.2532 38.387 32.9315 37.0262C33.1765 36.9352 33.3395 36.7015 33.3395 36.4399C33.3395 36.1784 33.1765 35.9446 32.9315 35.8537C24.4252 32.7068 24.5938 23.9103 24.8198 21.4399H44.5265C44.6001 22.2819 44.6806 24.0878 44.302 26.1641C44.2401 26.5034 44.4653 26.829 44.8049 26.891C45.1366 26.9534 45.4716 26.7298 45.5319 26.3881C45.9202 24.2583 45.8625 22.4236 45.7816 21.4399C46.8385 21.4763 47.7264 20.6241 47.7243 19.5649C47.7243 18.531 46.8832 17.6899 45.8493 17.6899H23.4976C22.4636 17.6899 21.6226 18.531 21.6226 19.5649C21.6226 21.5111 23.5675 21.4399 23.5675 21.4399ZM23.4976 18.9399H45.8492C46.1938 18.9399 46.4742 19.2204 46.4742 19.5649C46.4742 19.9095 46.1938 20.1899 45.8492 20.1899H23.4976C23.153 20.1899 22.8726 19.9095 22.8726 19.5649C22.8726 19.2204 23.153 18.9399 23.4976 18.9399Z" fill="white"/>
<path d="M40.4079 26.4861C40.4643 25.9688 40.5949 25.4274 40.7964 24.8769L41.2743 23.5683C41.3426 23.3812 41.3176 23.1728 41.2071 23.0071C41.0966 22.8414 40.9138 22.7382 40.7149 22.7294C37.2316 22.5722 34.6498 23.4934 33.0017 25.437C31.8318 25.0512 30.4002 24.8399 28.6317 24.9166C28.4328 24.9254 28.25 25.0286 28.1395 25.1943C28.029 25.36 28.004 25.5684 28.0724 25.7555L28.5506 27.0644C28.752 27.6146 28.8826 28.1557 28.9387 28.673C29.0541 29.7298 29.4899 31.6796 31.1119 32.8646C31.9939 33.5088 33.0907 33.832 34.3877 33.832C34.9882 33.832 35.6319 33.7624 36.3167 33.6235C37.5694 33.3761 38.3099 32.0705 37.9391 30.8652C39.7849 29.7259 40.2795 27.6604 40.4079 26.4861ZM31.8492 31.855C30.6148 30.9532 30.2745 29.3892 30.1814 28.5378C30.1143 27.9201 29.9605 27.2798 29.7246 26.635L29.5479 26.1513C34.9095 26.2224 36.3697 29.35 36.7574 31.3128C35.1616 29.0806 32.7433 27.7953 32.6274 27.7345C32.3228 27.5749 31.9447 27.6924 31.7842 27.9979C31.624 28.3031 31.7418 28.6809 32.047 28.8414C32.0741 28.8557 34.598 30.2026 35.9906 32.4117C34.2233 32.7569 32.8291 32.5706 31.8492 31.855ZM37.5466 29.6177C37.0403 28.366 36.0669 26.9087 34.2123 25.9468C35.4727 24.6607 37.3439 23.9936 39.799 23.9638C39.5022 24.7279 39.2379 25.5846 39.1652 26.3503C39.0697 27.2264 38.7281 28.7172 37.5466 29.6177Z" fill="white"/>
</svg>
