<svg width="15" height="14" viewBox="0 0 15 14" fill="none" xmlns="http://www.w3.org/2000/svg">
<path d="M1.44385 0.284912H14.1938C14.2824 0.284912 14.3709 0.301514 14.4595 0.334717C14.548 0.36792 14.6255 0.417725 14.6919 0.484131C14.7583 0.550537 14.8109 0.628011 14.8496 0.716553C14.8883 0.805095 14.9077 0.89917 14.9077 0.998779V12.321C14.9077 12.4207 14.8883 12.5147 14.8496 12.6033C14.8109 12.6918 14.7583 12.7693 14.6919 12.8357C14.6255 12.9021 14.548 12.9519 14.4595 12.9851C14.3709 13.0183 14.2824 13.0349 14.1938 13.0349H1.44385C1.35531 13.0349 1.26676 13.0183 1.17822 12.9851C1.08968 12.9519 1.01221 12.9021 0.945801 12.8357C0.879395 12.7693 0.826823 12.6918 0.788086 12.6033C0.749349 12.5147 0.72998 12.4207 0.72998 12.321V0.998779C0.72998 0.89917 0.749349 0.805095 0.788086 0.716553C0.826823 0.628011 0.879395 0.550537 0.945801 0.484131C1.01221 0.417725 1.08968 0.36792 1.17822 0.334717C1.26676 0.301514 1.35531 0.284912 1.44385 0.284912ZM13.48 3.28979L7.86865 8.32007L2.15771 3.27319V11.6238H13.48V3.28979ZM2.50635 1.69604L7.86865 6.42749L13.1313 1.69604H2.50635Z" fill="white"/>
</svg>
