<svg width="112" height="112" viewBox="0 0 112 112" fill="none" xmlns="http://www.w3.org/2000/svg">
<g opacity="0.3" filter="url(#filter0_d_1_596)">
<rect x="20" y="20" width="72" height="72" rx="36" fill="white"/>
<g clip-path="url(#clip0_1_596)">
<path d="M63.0005 57.0002H51.8305L56.7105 61.8802C57.1005 62.2702 57.1005 62.9102 56.7105 63.3002C56.3205 63.6902 55.6905 63.6902 55.3005 63.3002L48.7105 56.7102C48.3205 56.3202 48.3205 55.6902 48.7105 55.3002L55.2905 48.7002C55.6805 48.3102 56.3105 48.3102 56.7005 48.7002C57.0905 49.0902 57.0905 49.7202 56.7005 50.1102L51.8305 55.0002H63.0005C63.5505 55.0002 64.0005 55.4502 64.0005 56.0002C64.0005 56.5502 63.5505 57.0002 63.0005 57.0002Z" fill="#323232"/>
</g>
</g>
<defs>
<filter id="filter0_d_1_596" x="0" y="0" width="112" height="112" filterUnits="userSpaceOnUse" color-interpolation-filters="sRGB">
<feFlood flood-opacity="0" result="BackgroundImageFix"/>
<feColorMatrix in="SourceAlpha" type="matrix" values="0 0 0 0 0 0 0 0 0 0 0 0 0 0 0 0 0 0 127 0" result="hardAlpha"/>
<feMorphology radius="4" operator="dilate" in="SourceAlpha" result="effect1_dropShadow_1_596"/>
<feOffset/>
<feGaussianBlur stdDeviation="8"/>
<feComposite in2="hardAlpha" operator="out"/>
<feColorMatrix type="matrix" values="0 0 0 0 0.494118 0 0 0 0 0.494118 0 0 0 0 0.494118 0 0 0 0.1 0"/>
<feBlend mode="normal" in2="BackgroundImageFix" result="effect1_dropShadow_1_596"/>
<feBlend mode="normal" in="SourceGraphic" in2="effect1_dropShadow_1_596" result="shape"/>
</filter>
<clipPath id="clip0_1_596">
<rect width="16" height="16" fill="white" transform="translate(48 48)"/>
</clipPath>
</defs>
</svg>
