<svg width="26" height="26" viewBox="0 0 26 26" fill="none" xmlns="http://www.w3.org/2000/svg">
<path d="M21.6667 19.5C22.8583 19.5 23.8225 18.525 23.8225 17.3333L23.8333 5.41667C23.8333 4.225 22.8583 3.25 21.6667 3.25H4.33333C3.14167 3.25 2.16667 4.225 2.16667 5.41667V17.3333C2.16667 18.525 3.14167 19.5 4.33333 19.5H0C0 20.6917 0.975 21.6667 2.16667 21.6667H23.8333C25.025 21.6667 26 20.6917 26 19.5H21.6667ZM4.33333 5.41667H21.6667V17.3333H4.33333V5.41667ZM13 20.5833C12.4042 20.5833 11.9167 20.0958 11.9167 19.5C11.9167 18.9042 12.4042 18.4167 13 18.4167C13.5958 18.4167 14.0833 18.9042 14.0833 19.5C14.0833 20.0958 13.5958 20.5833 13 20.5833Z" fill="#1B99D4"/>
</svg>
