<svg width="14" height="16" viewBox="0 0 14 16" fill="none" xmlns="http://www.w3.org/2000/svg">
<path d="M7.09806 13.8086L10.601 10.3057C10.9552 9.9515 11.2485 9.55859 11.4809 9.12695C11.7133 8.69531 11.8738 8.24154 11.9623 7.76562C12.0619 7.27865 12.0868 6.79167 12.037 6.30469C11.9872 5.81771 11.8682 5.34733 11.6801 4.89355C11.4919 4.43978 11.2429 4.02474 10.933 3.64844C10.6231 3.27214 10.2634 2.94564 9.85392 2.66895C9.44442 2.39225 9.00724 2.18473 8.5424 2.04639C8.07756 1.90804 7.59611 1.83887 7.09806 1.83887C6.61108 1.83887 6.13241 1.90804 5.66203 2.04639C5.19165 2.18473 4.75171 2.39225 4.3422 2.66895C3.9327 2.94564 3.573 3.27214 3.2631 3.64844C2.95321 4.02474 2.70418 4.43978 2.51603 4.89355C2.32788 5.34733 2.21167 5.81771 2.1674 6.30469C2.12313 6.79167 2.14526 7.27865 2.23381 7.76562C2.33341 8.24154 2.49943 8.69531 2.73185 9.12695C2.96427 9.55859 3.25203 9.9515 3.59513 10.3057L7.09806 13.8086ZM7.09806 15.8008L2.59904 11.3018C2.14526 10.859 1.77173 10.3582 1.47843 9.79932C1.18514 9.2404 0.97762 8.65104 0.855876 8.03125C0.734131 7.41146 0.703695 6.7889 0.764567 6.16357C0.825439 5.53825 0.972087 4.93229 1.20451 4.3457C1.448 3.77018 1.77173 3.23893 2.1757 2.75195C2.57967 2.26497 3.04175 1.8444 3.56193 1.49023C4.08211 1.13607 4.6438 0.867676 5.24699 0.685059C5.85018 0.502441 6.4672 0.411133 7.09806 0.411133C7.72892 0.411133 8.34595 0.502441 8.94914 0.685059C9.55233 0.867676 10.1195 1.13607 10.6508 1.49023C11.171 1.8444 11.6303 2.26497 12.0287 2.75195C12.4272 3.23893 12.7481 3.77018 12.9916 4.3457C13.2351 4.93229 13.3873 5.53825 13.4482 6.16357C13.509 6.7889 13.4786 7.41146 13.3569 8.03125C13.2351 8.65104 13.0248 9.2404 12.726 9.79932C12.4272 10.3582 12.0564 10.859 11.6137 11.3018L7.09806 15.8008ZM7.09806 8.21387C7.28621 8.21387 7.46883 8.1779 7.64592 8.10596C7.823 8.03402 7.97795 7.93164 8.11076 7.79883C8.24357 7.66602 8.34595 7.51107 8.41789 7.33398C8.48983 7.1569 8.5258 6.97428 8.5258 6.78613C8.5258 6.59798 8.48983 6.41813 8.41789 6.24658C8.34595 6.07503 8.24357 5.92285 8.11076 5.79004C7.97795 5.65723 7.823 5.55485 7.64592 5.48291C7.46883 5.41097 7.28621 5.375 7.09806 5.375C6.90991 5.375 6.73006 5.41097 6.55851 5.48291C6.38696 5.55485 6.23478 5.65723 6.10197 5.79004C5.96916 5.92285 5.86678 6.07503 5.79484 6.24658C5.7229 6.41813 5.68693 6.59798 5.68693 6.78613C5.68693 6.97428 5.7229 7.1569 5.79484 7.33398C5.86678 7.51107 5.96916 7.66602 6.10197 7.79883C6.23478 7.93164 6.38696 8.03402 6.55851 8.10596C6.73006 8.1779 6.90991 8.21387 7.09806 8.21387ZM7.09806 9.625C6.72176 9.625 6.36206 9.55306 6.01896 9.40918C5.67586 9.2653 5.3715 9.06055 5.10588 8.79492C4.84025 8.5293 4.6355 8.22217 4.49162 7.87354C4.34774 7.5249 4.2758 7.16243 4.2758 6.78613C4.2758 6.40983 4.34774 6.05013 4.49162 5.70703C4.6355 5.36393 4.84025 5.05957 5.10588 4.79395C5.3715 4.52832 5.67586 4.32357 6.01896 4.17969C6.36206 4.03581 6.72176 3.96387 7.09806 3.96387C7.47437 3.96387 7.83683 4.03581 8.18547 4.17969C8.5341 4.32357 8.84123 4.52832 9.10685 4.79395C9.37248 5.05957 9.57723 5.36393 9.72111 5.70703C9.86499 6.05013 9.93693 6.40983 9.93693 6.78613C9.93693 7.16243 9.86499 7.5249 9.72111 7.87354C9.57723 8.22217 9.37248 8.5293 9.10685 8.79492C8.84123 9.06055 8.5341 9.2653 8.18547 9.40918C7.83683 9.55306 7.47437 9.625 7.09806 9.625Z" fill="white"/>
</svg>
