<svg width="14" height="14" viewBox="0 0 14 14" fill="none" xmlns="http://www.w3.org/2000/svg">
<path d="M13.48 9.79761V12.2878C13.48 12.3875 13.4634 12.4788 13.4302 12.5618C13.397 12.6448 13.3527 12.7195 13.2974 12.7859C13.231 12.8412 13.1562 12.8883 13.0732 12.927C12.9902 12.9657 12.9045 12.9906 12.8159 13.0017C12.661 13.0128 12.5226 13.0211 12.4009 13.0266C12.2791 13.0321 12.1685 13.0349 12.0688 13.0349C10.4972 13.0349 9.02523 12.7361 7.65283 12.1384C6.28044 11.5518 5.07959 10.7439 4.05029 9.7146C3.021 8.6853 2.21305 7.48446 1.62646 6.11206C1.02881 4.73967 0.72998 3.26766 0.72998 1.69604C0.72998 1.6075 0.732747 1.49959 0.738281 1.37231C0.743815 1.24504 0.752116 1.10392 0.763184 0.948975C0.774251 0.860433 0.799154 0.774658 0.837891 0.69165C0.876628 0.608643 0.923665 0.533936 0.979004 0.467529C1.04541 0.41219 1.12012 0.36792 1.20312 0.334717C1.28613 0.301514 1.37744 0.284912 1.47705 0.284912H3.96729C4.01156 0.284912 4.05583 0.293213 4.1001 0.309814C4.14437 0.326416 4.18311 0.351318 4.21631 0.384521C4.24951 0.406657 4.27441 0.437093 4.29102 0.47583C4.30762 0.514567 4.32145 0.556071 4.33252 0.600342C4.33252 0.688884 4.33805 0.763591 4.34912 0.824463C4.36019 0.885335 4.36572 0.94344 4.36572 0.998779C4.4432 1.48576 4.55387 1.9672 4.69775 2.44312C4.84163 2.91903 5.01872 3.37834 5.229 3.82104C5.26221 3.89852 5.26774 3.97599 5.24561 4.05347C5.22347 4.13094 5.18473 4.19181 5.12939 4.23608L3.60205 5.31519C3.83447 5.86857 4.1167 6.38322 4.44873 6.85913C4.76969 7.34611 5.1377 7.79712 5.55273 8.21216C5.96777 8.6272 6.41878 9.00073 6.90576 9.33276C7.38167 9.65373 7.89632 9.93042 8.44971 10.1628L9.52881 8.6521C9.55094 8.6189 9.57861 8.59123 9.61182 8.56909C9.64502 8.54696 9.67822 8.53035 9.71143 8.51929C9.7557 8.50822 9.7972 8.50545 9.83594 8.51099C9.87467 8.51652 9.91064 8.52482 9.94385 8.53589C10.3866 8.74618 10.8459 8.92326 11.3218 9.06714C11.7977 9.21102 12.2791 9.3217 12.7661 9.39917C12.8215 9.39917 12.8823 9.4047 12.9487 9.41577C13.0151 9.42684 13.0871 9.43237 13.1646 9.43237C13.2088 9.44344 13.2503 9.45728 13.2891 9.47388C13.3278 9.49048 13.3638 9.51538 13.397 9.54858C13.4191 9.58179 13.4385 9.62052 13.4551 9.66479C13.4717 9.70907 13.48 9.75334 13.48 9.79761Z" fill="white"/>
</svg>
