<svg width="50" height="43" viewBox="0 0 50 43" fill="none" xmlns="http://www.w3.org/2000/svg">
<path d="M50 0.425743L48.847 8.27833C45.9818 8.08911 43.8155 8.59369 42.348 9.79208C40.8805 10.9905 39.9371 12.6304 39.5178 14.7118C39.0985 16.7932 38.9937 19.0953 39.2034 21.6183H50V43H29.4549V18.78C29.4549 12.1573 31.2369 7.17455 34.8008 3.83168C38.4347 0.425743 43.501 -0.709571 50 0.425743ZM20.5451 0.425743L19.392 8.27833C16.5269 8.08911 14.3606 8.59369 12.8931 9.79208C11.4256 10.9905 10.4822 12.6304 10.0629 14.7118C9.6436 16.7932 9.53878 19.0953 9.74843 21.6183H20.5451V43H0V18.78C0 12.1573 1.78197 7.17455 5.34591 3.83168C8.97973 0.425743 14.0461 -0.709571 20.5451 0.425743Z" fill="#1B99D4"/>
</svg>
