<svg width="87" height="14" viewBox="0 0 87 14" fill="none" xmlns="http://www.w3.org/2000/svg">
<path d="M81.3092 4.15632L81.4325 4.42154L81.7242 4.44405L85.5488 4.73936C85.5852 4.74219 85.6185 4.75527 85.6449 4.77521C85.6709 4.79493 85.6885 4.82002 85.6977 4.84609C85.7155 4.89761 85.7024 4.95721 85.6539 4.99982C85.6538 4.99987 85.6538 4.99991 85.6537 4.99995L82.611 7.66074L82.3702 7.87131L82.4604 8.1782L83.6871 12.3491C83.6871 12.3493 83.6872 12.3495 83.6872 12.3496C83.695 12.3769 83.6942 12.4055 83.6846 12.4326C83.6748 12.4599 83.6558 12.4862 83.6275 12.5063C83.599 12.5264 83.5633 12.5387 83.525 12.5395C83.4868 12.5403 83.4504 12.5297 83.4208 12.5106C83.4207 12.5106 83.4206 12.5105 83.4205 12.5105L79.7681 10.1444L79.4963 9.96831L79.2244 10.1444L75.5713 12.511L75.5708 12.5113C75.5418 12.5301 75.5063 12.5409 75.4688 12.5406C75.4314 12.5403 75.3961 12.529 75.3676 12.5099C75.3392 12.4909 75.3197 12.4656 75.3091 12.4389C75.2985 12.4125 75.2966 12.3843 75.303 12.3575L75.3031 12.3571L76.3028 8.15078L76.3694 7.87038L76.1602 7.67218L73.3336 4.99465L73.3336 4.99462C73.311 4.97322 73.2969 4.94761 73.2907 4.92169C73.2846 4.89588 73.2862 4.86895 73.2957 4.84349C73.3052 4.81788 73.3229 4.79332 73.3489 4.7741C73.375 4.75477 73.4077 4.74214 73.4434 4.73939L73.4435 4.73938L77.2684 4.44405L77.5601 4.42154L77.6833 4.15629L79.3385 0.595378L79.3392 0.593969C79.3508 0.568787 79.3707 0.545198 79.3985 0.527685C79.4265 0.510087 79.4605 0.499981 79.4962 0.5C79.532 0.500019 79.566 0.510161 79.5939 0.527783C79.6217 0.545323 79.6416 0.568927 79.6532 0.594112L79.6532 0.594114L79.6541 0.59606L81.3092 4.15632Z" stroke="#FFBA49"/>
<path d="M13.3828 4.81779C13.3406 4.69358 13.263 4.58444 13.1595 4.50384C13.056 4.42325 12.9312 4.37472 12.8004 4.36425L8.97554 4.06033L7.32039 0.396487C7.26767 0.278482 7.18194 0.178254 7.07352 0.107899C6.9651 0.037545 6.83864 7.10354e-05 6.7094 1.00891e-07C6.58015 -7.08336e-05 6.45365 0.0372643 6.34516 0.1075C6.23667 0.177735 6.15082 0.277869 6.09798 0.395816L4.44283 4.06033L0.617932 4.36425C0.489421 4.37444 0.366565 4.42142 0.26406 4.4996C0.161555 4.57777 0.0837433 4.68382 0.0399326 4.80506C-0.00387815 4.9263 -0.0118322 5.0576 0.017022 5.18324C0.0458761 5.30888 0.110317 5.42355 0.202634 5.51353L3.0292 8.26896L2.02954 12.5977C1.99919 12.7287 2.00891 12.8658 2.05746 12.9913C2.10601 13.1167 2.19114 13.2246 2.3018 13.3011C2.41246 13.3775 2.54354 13.419 2.67804 13.42C2.81253 13.421 2.94423 13.3816 3.05604 13.3068L6.70918 10.8714L10.3623 13.3068C10.4766 13.3827 10.6114 13.4218 10.7485 13.4188C10.8857 13.4158 11.0186 13.3708 11.1294 13.29C11.2403 13.2092 11.3237 13.0964 11.3685 12.9667C11.4134 12.8371 11.4174 12.6968 11.3801 12.5648L10.153 8.27097L13.1963 5.53231C13.3955 5.35251 13.4687 5.07207 13.3828 4.81779Z" fill="#FFBA49"/>
<path d="M31.4972 4.81779C31.455 4.69358 31.3774 4.58444 31.2739 4.50384C31.1704 4.42325 31.0456 4.37472 30.9148 4.36425L27.0899 4.06033L25.4348 0.396487C25.3821 0.278482 25.2963 0.178254 25.1879 0.107899C25.0795 0.037545 24.953 7.10354e-05 24.8238 1.00891e-07C24.6945 -7.08336e-05 24.568 0.0372643 24.4595 0.1075C24.351 0.177735 24.2652 0.277869 24.2124 0.395816L22.5572 4.06033L18.7323 4.36425C18.6038 4.37444 18.4809 4.42142 18.3784 4.4996C18.2759 4.57777 18.1981 4.68382 18.1543 4.80506C18.1105 4.9263 18.1025 5.0576 18.1314 5.18324C18.1603 5.30888 18.2247 5.42355 18.317 5.51353L21.1436 8.26896L20.1439 12.5977C20.1136 12.7287 20.1233 12.8658 20.1718 12.9913C20.2204 13.1167 20.3055 13.2246 20.4162 13.3011C20.5268 13.3775 20.6579 13.419 20.7924 13.42C20.9269 13.421 21.0586 13.3816 21.1704 13.3068L24.8236 10.8714L28.4767 13.3068C28.591 13.3827 28.7258 13.4218 28.8629 13.4188C29 13.4158 29.133 13.3708 29.2438 13.29C29.3547 13.2092 29.4381 13.0964 29.4829 12.9667C29.5277 12.8371 29.5318 12.6968 29.4945 12.5648L28.2674 8.27097L31.3107 5.53231C31.5099 5.35251 31.583 5.07207 31.4972 4.81779Z" fill="#FFBA49"/>
<path d="M49.612 4.81779C49.5699 4.69358 49.4922 4.58444 49.3888 4.50384C49.2853 4.42325 49.1604 4.37472 49.0297 4.36425L45.2048 4.06033L43.5496 0.396487C43.4969 0.278482 43.4112 0.178254 43.3028 0.107899C43.1944 0.037545 43.0679 7.10354e-05 42.9386 1.00891e-07C42.8094 -7.08336e-05 42.6829 0.0372643 42.5744 0.1075C42.4659 0.177735 42.3801 0.277869 42.3272 0.395816L40.6721 4.06033L36.8472 4.36425C36.7187 4.37444 36.5958 4.42142 36.4933 4.4996C36.3908 4.57777 36.313 4.68382 36.2692 4.80506C36.2254 4.9263 36.2174 5.0576 36.2463 5.18324C36.2751 5.30888 36.3396 5.42355 36.4319 5.51353L39.2585 8.26896L38.2588 12.5977C38.2284 12.7287 38.2382 12.8658 38.2867 12.9913C38.3353 13.1167 38.4204 13.2246 38.531 13.3011C38.6417 13.3775 38.7728 13.419 38.9073 13.42C39.0418 13.421 39.1735 13.3816 39.2853 13.3068L42.9384 10.8714L46.5916 13.3068C46.7058 13.3827 46.8406 13.4218 46.9778 13.4188C47.1149 13.4158 47.2478 13.3708 47.3587 13.29C47.4695 13.2092 47.553 13.0964 47.5978 12.9667C47.6426 12.8371 47.6466 12.6968 47.6093 12.5648L46.3822 8.27097L49.4255 5.53231C49.6248 5.35251 49.6979 5.07207 49.612 4.81779Z" fill="#FFBA49"/>
<path d="M67.7265 4.81779C67.6844 4.69358 67.6067 4.58444 67.5033 4.50384C67.3998 4.42325 67.2749 4.37472 67.1442 4.36425L63.3193 4.06033L61.6641 0.396487C61.6114 0.278482 61.5257 0.178254 61.4173 0.107899C61.3089 0.037545 61.1824 7.10354e-05 61.0531 1.00891e-07C60.9239 -7.08336e-05 60.7974 0.0372643 60.6889 0.1075C60.5804 0.177735 60.4946 0.277869 60.4417 0.395816L58.7866 4.06033L54.9617 4.36425C54.8332 4.37444 54.7103 4.42142 54.6078 4.4996C54.5053 4.57777 54.4275 4.68382 54.3837 4.80506C54.3399 4.9263 54.3319 5.0576 54.3608 5.18324C54.3896 5.30888 54.4541 5.42355 54.5464 5.51353L57.373 8.26896L56.3733 12.5977C56.3429 12.7287 56.3527 12.8658 56.4012 12.9913C56.4498 13.1167 56.5349 13.2246 56.6455 13.3011C56.7562 13.3775 56.8873 13.419 57.0218 13.42C57.1563 13.421 57.288 13.3816 57.3998 13.3068L61.0529 10.8714L64.7061 13.3068C64.8204 13.3827 64.9551 13.4218 65.0923 13.4188C65.2294 13.4158 65.3623 13.3708 65.4732 13.29C65.584 13.2092 65.6675 13.0964 65.7123 12.9667C65.7571 12.8371 65.7611 12.6968 65.7239 12.5648L64.4967 8.27097L67.54 5.53231C67.7393 5.35251 67.8124 5.07207 67.7265 4.81779Z" fill="#FFBA49"/>
</svg>
