<svg width="50" height="51" viewBox="0 0 50 51" fill="none" xmlns="http://www.w3.org/2000/svg">
<rect y="0.389648" width="50" height="50" rx="4" fill="white" fill-opacity="0.1"/>
<g clip-path="url(#clip0_1_883)">
<path d="M29.78 16.3896H27.2839C26.5925 16.3896 25.9656 16.4951 25.4031 16.7061C24.8289 16.917 24.3425 17.2129 23.9441 17.5938C23.5457 17.9746 23.241 18.4404 23.03 18.9912C22.8074 19.5303 22.696 20.1396 22.696 20.8193V22.8584H20.2C20.0945 22.8584 20.0037 22.8936 19.9275 22.9639C19.8513 23.0342 19.8132 23.1221 19.8132 23.2275V26.1982C19.8132 26.292 19.8513 26.377 19.9275 26.4531C20.0037 26.5293 20.0945 26.5674 20.2 26.5674H22.696V34.0381C22.696 34.1318 22.7341 34.2139 22.8103 34.2842C22.8865 34.3545 22.9773 34.3896 23.0828 34.3896H26.3347C26.4519 34.3896 26.5486 34.3545 26.6248 34.2842C26.7009 34.2139 26.739 34.126 26.739 34.0205V26.5498H29.657C29.7625 26.5498 29.8533 26.5146 29.9294 26.4443C30.0056 26.374 30.0437 26.2861 30.0437 26.1807V23.2275C30.0437 23.1689 30.0349 23.1191 30.0173 23.0781C29.9998 23.0371 29.9734 22.999 29.9382 22.9639C29.8914 22.9287 29.8445 22.9023 29.7976 22.8848C29.7507 22.8672 29.7039 22.8584 29.657 22.8584H26.739V21.1357C26.739 20.7139 26.821 20.4004 26.9851 20.1953C27.1492 19.9902 27.5183 19.8877 28.0925 19.8877H29.7625C29.8796 19.8877 29.9763 19.8496 30.0525 19.7734C30.1287 19.6973 30.1667 19.6123 30.1667 19.5186V16.7588C30.1667 16.665 30.1287 16.5801 30.0525 16.5039C29.9763 16.4277 29.8855 16.3896 29.78 16.3896Z" fill="white"/>
</g>
<defs>
<clipPath id="clip0_1_883">
<rect width="10.36" height="18" fill="white" transform="matrix(1 0 0 -1 19.8101 34.3896)"/>
</clipPath>
</defs>
</svg>
