<svg width="50" height="51" viewBox="0 0 50 51" fill="none" xmlns="http://www.w3.org/2000/svg">
<rect y="0.389648" width="50" height="50" rx="4" fill="white" fill-opacity="0.1"/>
<g clip-path="url(#clip0_1_887)">
<path d="M34 34.3896V27.7979C34 26.9893 33.9414 26.2334 33.8242 25.5303C33.7188 24.8389 33.5049 24.2354 33.1826 23.7197C32.8604 23.2041 32.4062 22.7998 31.8203 22.5068C31.2344 22.2139 30.4727 22.0674 29.5352 22.0674C28.6211 22.0674 27.8652 22.2725 27.2676 22.6826C26.6699 23.0928 26.248 23.5381 26.002 24.0186H25.9492V22.3662H22.3633V34.3896H26.1074V28.4482C26.1074 27.6631 26.2363 26.9512 26.4941 26.3125C26.752 25.6738 27.3672 25.3545 28.3398 25.3545C29.2891 25.3545 29.8486 25.7119 30.0186 26.4268C30.1885 27.1416 30.2734 27.8447 30.2734 28.5361V34.3896H34ZM16.2988 22.3662H20.0254V34.3896H16.2988V22.3662ZM18.1621 16.3896C17.5645 16.3896 17.0547 16.6006 16.6328 17.0225C16.2109 17.4443 16 17.9541 16 18.5518C16 19.1494 16.2109 19.6621 16.6328 20.0898C17.0547 20.5176 17.5645 20.7314 18.1621 20.7314C18.7598 20.7314 19.2695 20.5176 19.6914 20.0898C20.1133 19.6621 20.3242 19.1494 20.3242 18.5518C20.3242 17.9541 20.1133 17.4443 19.6914 17.0225C19.2695 16.6006 18.7598 16.3896 18.1621 16.3896Z" fill="white"/>
</g>
<defs>
<clipPath id="clip0_1_887">
<rect width="18" height="18" fill="white" transform="matrix(1 0 0 -1 16 34.3896)"/>
</clipPath>
</defs>
</svg>
