<svg width="24" height="30" viewBox="0 0 24 30" fill="none" xmlns="http://www.w3.org/2000/svg">
<g clip-path="url(#clip0_1_174)">
<path d="M20.4491 23.1845H16.8931V17.6154C16.8931 16.2875 16.8694 14.5779 15.0436 14.5779C13.1915 14.5779 12.908 16.0249 12.908 17.5188V23.1841H9.35213V11.7319H12.7658V13.297H12.8136C13.1552 12.7129 13.6489 12.2323 14.2421 11.9065C14.8352 11.5808 15.5057 11.422 16.1819 11.447C19.7861 11.447 20.4506 13.8178 20.4506 16.902L20.4491 23.1845ZM5.33963 10.1666C4.1999 10.1668 3.27581 9.24298 3.27563 8.10326C3.27544 6.96355 4.19916 6.03945 5.33887 6.03926C6.4786 6.03898 7.40269 6.96279 7.40287 8.10251C7.40298 8.64982 7.18566 9.17476 6.79872 9.56186C6.41179 9.94894 5.88694 10.1665 5.33963 10.1666ZM7.11769 23.1846H3.5579V11.7319H7.1176L7.11769 23.1846ZM22.222 2.73673H1.77103C0.804469 2.72586 0.0118125 3.50014 0 4.46671V25.0029C0.0114375 25.9699 0.804 26.745 1.77094 26.7349H22.222C23.191 26.7469 23.9866 25.9718 24 25.0029V4.46511C23.9862 3.49667 23.1905 2.72248 22.222 2.73514" fill="#0A66C2"/>
</g>
<defs>
<clipPath id="clip0_1_174">
<rect width="24" height="24" fill="white" transform="translate(0 2.73499)"/>
</clipPath>
</defs>
</svg>
