<svg width="50" height="51" viewBox="0 0 50 51" fill="none" xmlns="http://www.w3.org/2000/svg">
<rect y="0.389648" width="50" height="50" rx="4" fill="white" fill-opacity="0.1"/>
<g clip-path="url(#clip0_1_891)">
<path d="M25.0955 16.39C23.8298 16.39 22.7166 16.5717 21.7556 16.935C20.783 17.2982 19.9714 17.7875 19.321 18.4027C18.6707 19.018 18.1755 19.724 17.8357 20.5209C17.5076 21.3061 17.3435 22.1322 17.3435 22.9994C17.3435 23.3979 17.3962 23.8139 17.5017 24.2475C17.6189 24.6811 17.78 25.0912 17.9851 25.4779C18.1902 25.8646 18.4392 26.2104 18.7322 26.515C19.0251 26.8314 19.3533 27.0658 19.7166 27.2182C19.9275 27.3119 20.0564 27.2738 20.1033 27.1039C20.1501 26.934 20.2673 26.515 20.4548 25.8471C20.4666 25.7885 20.4666 25.7328 20.4548 25.6801C20.4431 25.6273 20.4138 25.5775 20.3669 25.5307C19.8513 24.9447 19.5642 24.2357 19.5056 23.4037C19.447 22.5834 19.6082 21.7924 19.989 21.0307C20.3699 20.2689 20.9646 19.6244 21.7732 19.0971C22.5818 18.5697 23.5896 18.3061 24.7966 18.3061C26.5427 18.3061 27.7966 18.7982 28.5583 19.7826C29.3318 20.767 29.7156 21.848 29.7097 23.0258C29.7039 24.2035 29.3669 25.2846 28.699 26.2689C28.031 27.2533 27.1345 27.7455 26.0095 27.7455C25.4353 27.7455 24.9695 27.5521 24.6121 27.1654C24.2546 26.7787 24.1404 26.3158 24.2693 25.7768C24.4333 25.1205 24.6355 24.4672 24.8757 23.8168C25.116 23.1664 25.2361 22.6068 25.2361 22.1381C25.2361 21.5521 25.0486 21.1303 24.6736 20.8725C24.2986 20.6264 23.8855 20.5502 23.4343 20.6439C22.9832 20.7377 22.5701 21.0014 22.1951 21.435C21.8201 21.8686 21.6326 22.4779 21.6326 23.2631C21.6326 23.7436 21.6912 24.1332 21.8083 24.432C21.9255 24.7309 21.9841 24.8803 21.9841 24.8803C21.9841 24.8803 21.9197 25.1205 21.7908 25.601C21.6736 26.0932 21.5359 26.6498 21.3777 27.2709C21.2195 27.892 21.0701 28.4955 20.9294 29.0814C20.7771 29.6791 20.6716 30.0834 20.613 30.2943C20.4255 31.0209 20.3904 31.8412 20.5076 32.7553C20.6248 33.6693 20.6892 34.1791 20.7009 34.2846C20.7126 34.3432 20.7449 34.3783 20.7976 34.39C20.8503 34.4018 20.8943 34.3842 20.9294 34.3373C20.988 34.2553 21.2722 33.8246 21.782 33.0453C22.2917 32.266 22.6404 31.5248 22.8279 30.8217C22.8982 30.5639 23.0388 30.0658 23.2498 29.3275C23.4607 28.5893 23.5662 28.2201 23.5662 28.2201C23.7537 28.56 24.0994 28.8529 24.6033 29.099C25.1072 29.3451 25.658 29.4682 26.2556 29.4682C27.1345 29.4682 27.949 29.2924 28.699 28.9408C29.4373 28.5893 30.0789 28.1059 30.6238 27.4906C31.1687 26.8754 31.5935 26.1576 31.8982 25.3373C32.1912 24.5053 32.3376 23.6205 32.3376 22.683C32.3376 21.7807 32.1501 20.9486 31.7751 20.1869C31.4119 19.4135 30.905 18.7455 30.2546 18.183C29.6042 17.6205 28.8337 17.1811 27.9431 16.8646C27.0642 16.5482 26.115 16.39 25.0955 16.39Z" fill="white"/>
</g>
<defs>
<clipPath id="clip0_1_891">
<rect width="15.3" height="18" fill="white" transform="matrix(1 0 0 -1 17.3401 34.3896)"/>
</clipPath>
</defs>
</svg>
