<svg width="50" height="51" viewBox="0 0 50 51" fill="none" xmlns="http://www.w3.org/2000/svg">
<rect y="0.389648" width="50" height="50" rx="4" fill="white" fill-opacity="0.1"/>
<g clip-path="url(#clip0_1_895)">
<path d="M36.0164 18.5166C35.6179 18.7041 35.199 18.8564 34.7595 18.9736C34.3201 19.0908 33.8718 19.1787 33.4148 19.2373C33.8835 18.9561 34.2908 18.6016 34.6365 18.1738C34.9822 17.7461 35.2371 17.2627 35.4011 16.7236C34.9675 16.9932 34.5105 17.2188 34.03 17.4004C33.5496 17.582 33.0515 17.7256 32.5359 17.8311C32.1257 17.3857 31.6365 17.0342 31.0681 16.7764C30.4998 16.5186 29.8933 16.3896 29.2488 16.3896C28.6277 16.3896 28.0417 16.5068 27.491 16.7412C26.9402 16.9873 26.4597 17.3154 26.0496 17.7256C25.6394 18.1357 25.3171 18.6162 25.0828 19.167C24.8484 19.7178 24.7312 20.3037 24.7312 20.9248C24.7312 21.1123 24.74 21.291 24.7576 21.4609C24.7751 21.6309 24.8015 21.7979 24.8367 21.9619C23.8992 21.915 22.991 21.7744 22.1121 21.54C21.2332 21.2939 20.3982 20.9658 19.6072 20.5557C18.8162 20.1455 18.075 19.6592 17.3835 19.0967C16.7039 18.5342 16.0828 17.9072 15.5203 17.2158C15.321 17.5557 15.1687 17.9189 15.0632 18.3057C14.9578 18.6924 14.905 19.0967 14.905 19.5186C14.905 20.3037 15.0896 21.0273 15.4587 21.6895C15.8279 22.3516 16.3113 22.8877 16.9089 23.2979C16.5457 23.2861 16.1882 23.2305 15.8367 23.1309C15.4851 23.0312 15.1628 22.8994 14.8699 22.7354C14.8699 22.7354 14.8699 22.7412 14.8699 22.7529C14.8699 22.7646 14.8699 22.7764 14.8699 22.7881C14.8699 23.3389 14.9636 23.8604 15.1511 24.3525C15.3269 24.8447 15.5789 25.2871 15.907 25.6797C16.2351 26.0723 16.616 26.4033 17.0496 26.6729C17.4949 26.9424 17.9753 27.1299 18.491 27.2354C18.3035 27.2939 18.1101 27.335 17.9109 27.3584C17.7117 27.3818 17.5066 27.3936 17.2957 27.3936C17.155 27.3936 17.0115 27.3877 16.865 27.376C16.7185 27.3643 16.575 27.3408 16.4343 27.3057C16.5867 27.7627 16.7976 28.1787 17.0671 28.5537C17.3484 28.9404 17.6707 29.2744 18.0339 29.5557C18.3972 29.8369 18.8015 30.0537 19.2468 30.2061C19.6921 30.3701 20.1609 30.458 20.6531 30.4697C20.2664 30.7744 19.8562 31.0439 19.4226 31.2783C18.989 31.5244 18.5378 31.7295 18.0691 31.8936C17.6003 32.0576 17.114 32.1865 16.6101 32.2803C16.1062 32.3623 15.5906 32.4033 15.0632 32.4033C14.8757 32.4033 14.6912 32.4004 14.5095 32.3945C14.3279 32.3887 14.1492 32.374 13.9734 32.3506C14.4773 32.6787 15.0046 32.9658 15.5554 33.2119C16.0945 33.4697 16.657 33.6865 17.2429 33.8623C17.8289 34.0381 18.4265 34.167 19.0359 34.249C19.657 34.3428 20.2839 34.3896 20.9167 34.3896C23.0027 34.3896 24.8425 33.9971 26.4363 33.2119C28.0417 32.4268 29.3865 31.416 30.4705 30.1797C31.5544 28.9434 32.3777 27.5576 32.9402 26.0225C33.5027 24.4873 33.7839 22.9697 33.7839 21.4697C33.7839 21.3643 33.781 21.2646 33.7751 21.1709C33.7693 21.0771 33.7664 20.9775 33.7664 20.8721C34.2117 20.5557 34.6248 20.1982 35.0056 19.7998C35.3865 19.4014 35.7234 18.9736 36.0164 18.5166Z" fill="white"/>
</g>
<defs>
<clipPath id="clip0_1_895">
<rect width="22.05" height="18" fill="white" transform="matrix(1 0 0 -1 13.97 34.3896)"/>
</clipPath>
</defs>
</svg>
